<?xml version="1.0" encoding="UTF-8"?><svg id="Layer_2" xmlns="http://www.w3.org/2000/svg" viewBox="0 0 216.5 21.5"><g id="Small_Map__High_Res_"><g><path d="M216.5,21.5H0C0,14.3,0,7.2,0,0c72.2,0,144.4,0,216.5,0,0,7.2,0,14.3,0,21.5ZM7.4,12.5s0,0,0,0c0,1.7,0,3.4,0,5.1,0,.1,.3,.4,.5,.4,.8,0,1.7,0,2.5,0,12.5,0,25,0,37.5,0h37.3c12.8,0,25.5,0,38.3,0,11.9,0,23.7,0,35.6,0,11.7,0,23.4,0,35.2,0,.4,0,.8,0,1.2,0v-5.5h-1.9v3.6h-35.4v-3.6h-1.9v3.6h-35.4v-3.6h-1.9v3.6h-35.4v-3.6h-1.9v3.6H46.4v-3.6h-1.9v3.6H9.1v-3.6h-1.7Zm196.2-2c-.2-.3-.5-.6-.5-.9,0-.7,0-1.4,0-2.1,0-.5,.5-1,1.1-1,.6,0,.8,.4,.8,.9,0,.6,0,1.2,0,1.7,0,.5,0,1.1-.6,1.3h1.9c-.2-.3-.5-.5-.5-.8,0-.8,0-1.5,0-2.3,0-.5,.5-.9,1.1-.9,.6,0,.8,.3,.8,.8,0,.6,0,1.1,0,1.7,0,.6,.2,1.2-.6,1.4h2c-.6-.2-.7-.6-.6-1.1,0-.7,0-1.4,0-2.1,0-1-.8-1.5-1.7-1.1-.3,.1-.6,.4-1,.6-.8-1.1-1.8-.8-2.7,0l-.2-.7-1.4,.2c1.1,.5,.7,1.4,.7,2.2,0,.7,.4,1.6-.6,2.1h2Zm-46.7-3.3c1.2-.8,1.4-1.7,.8-2.5-.7-.9-2.3-.9-3.2,0-.8,.7-.6,1.7,.6,2.7-.1,0-.2,.1-.3,.2-.8,.5-1.1,.9-.9,1.7,.1,.8,.7,1.2,1.4,1.3,.5,0,1.1,0,1.6,0,.7-.2,1.3-.6,1.4-1.4,.1-.8-.3-1.4-1-1.7,0,0-.2-.1-.3-.2Zm44.1-1.1h-1.9l.7,.5-1.7,1.8V3.6l-1.7,.2c.8,.2,.9,.7,.9,1.3,0,1.3,0,2.6,0,3.9,0,.6,.2,1.2-.8,1.5h2.4c-.9-.6-1-1.7-.2-2.2,.4,.5,.7,1,1.1,1.5,.5,.8,.7,.8,1.5,.6l-2.2-2.8,2-1.6Zm-19.5-1.9c-2.8,0-4.2,3-3.3,5.3,.4,1,1.5,1.4,2.5,1.1,.9-.3,1.3-.9,1.5-1.7,.1-.8,0-1.6-.8-2.1-.7-.5-1.5-.4-2.2,0,0,0-.2,0-.3,.2,.2-1.5,1.3-2.3,2.6-2.8Zm-61.3,0v-.2c-.3,0-.4,0-.6,.1-2.3,.6-3.6,3.3-2.6,5.4,.5,1.1,1.8,1.5,2.9,.9,1-.5,1.5-1.9,.9-3-.5-1-1.6-1.3-2.8-.6,0,0-.2,0-.3,.1h-.2c.3-.7,.6-1.3,1-1.7,.4-.4,1.1-.7,1.6-1Zm-37.3,8v-1.8l.8-.4-.9-.5v-3.8c-.8,0-3.8,3.6-3.6,4.5h2.8v2h.9Zm69.1,0v-1.8l.8-.4-.9-.5v-4c-.4,.2-.7,.3-.8,.5-.9,1.1-1.8,2.2-2.7,3.3-.2,.2-.2,.6-.3,1h3v2h.9Zm-37.9-3.5c.3-.2,.5-.3,.7-.4,.6-.5,.7-1.3,.3-1.9-.8-1-2.9-.8-3.4,.3-.1,.2,0,.6,0,.9,0,0,.4,.1,.5,0,.1-.2,.3-.5,.3-.7,0-.5,.2-.7,.6-.8,.6-.2,1.2,.2,1.3,.7,.2,.9-.2,1.6-.9,1.7-.2,0-.4,.2-.6,.3,.2,0,.4,.2,.5,.2,.8,0,1.2,.3,1.2,1,0,.9-.3,1.7-1,1.8-.4,0-.8,0-1.2-.2-.1,0,0-.5-.2-.8,0-.2-.3-.4-.5-.4-.1,0-.4,.3-.4,.4,0,.3,.2,.8,.4,1,.6,.5,1.4,.5,2.2,.4,1-.2,1.6-.9,1.6-1.7,0-.9-.3-1.3-1.5-1.7Zm-27.1-3c-1.4,0-2.4,1-2.4,2.5,0,1.6,.9,2.6,2.4,2.6,1.4,0,2.4-1,2.4-2.5,0-1.5-.9-2.5-2.4-2.5Zm37.3,0c-1.4,0-2.4,1-2.4,2.5,0,1.6,.9,2.6,2.4,2.6,1.4,0,2.4-1,2.4-2.5,0-1.5-.9-2.5-2.4-2.5Zm35,2.5c0,1.6,.9,2.5,2.3,2.5,1.4,0,2.4-1,2.4-2.5,0-1.5-1-2.6-2.4-2.6-1.4,0-2.3,1-2.3,2.5Zm23.9,0c0,1.6,.9,2.5,2.3,2.5,1.4,0,2.4-1,2.4-2.5,0-1.5-1-2.6-2.4-2.6-1.4,0-2.3,1-2.3,2.5Zm5.7,0c0,1.6,.8,2.5,2.3,2.5,1.5,0,2.4-1,2.4-2.6,0-1.5-1-2.5-2.4-2.5-1.4,0-2.3,1-2.3,2.5Zm-142,0c0,1.6,.9,2.6,2.4,2.6,1.4,0,2.4-1,2.4-2.5,0-1.5-.9-2.5-2.4-2.5-1.4,0-2.4,1-2.4,2.5ZM7.3,5.7c-1.4,0-2.3,1-2.3,2.5,0,1.6,.9,2.6,2.4,2.5,1.4,0,2.3-1,2.3-2.6,0-1.5-1-2.5-2.4-2.5Zm66.7,4.9h4.4v-.7h-3.3v-.2c.7-.3,1.3-.7,2-1,.5-.2,.9-.6,1-1.2,.1-1-.4-1.6-1.5-1.8-1.1-.2-2.2,.4-2.3,1.2,0,.2,0,.5,.2,.6,0,0,.4,0,.5,0,.1-.2,.3-.4,.2-.6-.2-.5,0-.7,.5-.8,.8-.3,1.5,.2,1.5,1.1,0,.7-.3,1.1-.8,1.4-.6,.4-1.2,.7-1.8,1.1-.2,.2-.3,.5-.6,.9Zm-31.6-.7v-.2c.6-.3,1.3-.7,2-1,.5-.3,.9-.6,1-1.2,0-.9-.5-1.5-1.6-1.7-1-.2-2.1,.4-2.3,1.2,0,.2,0,.5,.2,.6,0,0,.4,0,.5,0,.1-.2,.3-.4,.2-.6-.1-.4,0-.7,.4-.8,.8-.3,1.5,.2,1.6,1,0,.7-.3,1.1-.9,1.5-.6,.3-1.2,.7-1.7,1-.2,.2-.3,.5-.6,.9h4.3v-.7h-3.3Zm171.2-1.5c0-.9,0-1.5-.7-2-.7-.4-1.4-.4-2,0-1.2,.7-1.4,3-.2,3.9,1,.8,2.5,.5,3.1-.8-.6,.4-1.1,.9-1.9,.7-.7-.2-1.1-.9-1-1.9h2.9ZM40.6,10.5c-1.3-.1-1-1.1-1-1.8,0-1,0-2,0-3.1l-1.9,.7v.2h1c0,.2,0,.2,0,.3,0,.6,0,1.3,0,1.9q0,1.3-1.1,1.8h3ZM211.1,5.4h.1c.5-.2,.9-.5,1.4-.9,.1-.1,.1-.4,.1-.7-.2,0-.5,0-.7,.2-.4,.4-.6,.9-1,1.4Z" fill="transparent"/><path d="M7.4,12.5h1.7v3.6H44.5v-3.6h1.9v3.6h35.3v-3.6h1.9v3.6h35.4v-3.6h1.9v3.6h35.4v-3.6h1.9v3.6h35.4v-3.6h1.9v5.5c-.4,0-.8,0-1.2,0-11.7,0-23.4,0-35.2,0-11.9,0-23.7,0-35.6,0-12.8,0-25.5,0-38.3,0H47.7c-12.5,0-25,0-37.5,0-.8,0-1.7,0-2.5,0-.2,0-.5-.2-.5-.4,0-1.7,0-3.4,0-5.1,0,0,0,0,0,0Z"/><path d="M203.6,10.6h-2c1.1-.5,.6-1.4,.6-2.1,0-.7,.5-1.7-.7-2.2l1.4-.2,.2,.7c.9-.7,1.8-1.1,2.7,0,.4-.2,.7-.5,1-.6,.9-.4,1.7,.1,1.7,1.1,0,.7,0,1.4,0,2.1,0,.5,0,.9,.6,1.1h-2c.8-.2,.6-.9,.6-1.4,0-.6,0-1.1,0-1.7,0-.5-.3-.8-.8-.8-.6,0-1.1,.4-1.1,.9,0,.8,0,1.5,0,2.3,0,.3,.3,.5,.5,.8h-1.9c.6-.2,.6-.8,.6-1.3,0-.6,0-1.2,0-1.7,0-.5-.2-.9-.8-.9-.6,0-1.1,.4-1.1,1,0,.7,0,1.4,0,2.1,0,.3,.3,.6,.5,.9Z"/><path d="M156.9,7.2c.1,0,.2,.2,.3,.2,.7,.4,1.1,.9,1,1.7-.1,.8-.7,1.3-1.4,1.4-.5,.1-1.1,.1-1.6,0-.7-.1-1.3-.6-1.4-1.3-.1-.8,.1-1.2,.9-1.7,.1,0,.2-.1,.3-.2-1.2-1-1.3-1.9-.6-2.7,.9-.8,2.5-.8,3.2,0,.7,.8,.4,1.7-.8,2.5Zm-.8,3.2c.1,0,.3,0,.4,0,.3-.3,.7-.6,.8-1,.2-.5-.1-.9-.6-1.1-.5-.2-1.1-.3-1.6-.5,0,0,0,0-.1,0-.5,.4-.7,1.1-.4,1.8,.2,.6,.7,.9,1.4,.9Zm1.1-4.5c0-.7-.4-1.3-1-1.4-.6-.1-1.2,.2-1.4,.7-.2,.6,0,1.1,.6,1.5,.2,0,.3,.2,.5,.2,.6,.3,.9,.1,1.1-.5,0-.2,0-.4,.1-.5Z"/><path d="M201,6.1l-2,1.6,2.2,2.8c-.8,.2-1,.2-1.5-.6-.3-.5-.7-1-1.1-1.5-.8,.5-.7,1.6,.2,2.2h-2.4c1-.3,.8-1,.8-1.5,0-1.3,0-2.6,0-3.9,0-.6-.1-1.1-.9-1.3l1.7-.2v4.8l1.7-1.8-.7-.5h1.9Z"/><path d="M181.4,4.2c-1.3,.5-2.3,1.2-2.6,2.8,.2,0,.3-.1,.3-.2,.7-.4,1.5-.6,2.2,0,.7,.5,.9,1.3,.8,2.1-.1,.9-.6,1.5-1.5,1.7-1.1,.3-2.1,0-2.5-1.1-1-2.3,.4-5.3,3.3-5.3Zm-.1,4.2s0-.2,0-.3c-.2-.9-.7-1.3-1.5-1.2-.8,.1-1,.5-.9,1.5,0,.2,0,.4,0,.5,.2,.9,.7,1.4,1.3,1.4,.6,0,1.1-.6,1.2-1.5,0,0,0-.2,0-.4Z"/><path d="M120.1,4.2c-.6,.3-1.2,.6-1.6,1-.4,.4-.7,1.1-1,1.6h.2c0,0,.2,0,.3,0,1.2-.6,2.2-.4,2.8,.6,.6,1.1,.1,2.5-.9,3-1.1,.6-2.4,.2-2.9-.9-1-2.1,.3-4.8,2.6-5.4,.2,0,.4,0,.6-.1v.2Zm-2.7,4c.2,.5,.2,1.1,.5,1.6,.4,.8,1.4,.7,1.9,0,.3-.6,.4-1.3,0-2-.3-.6-.8-.9-1.5-.7-.6,.2-1,.5-1,1.2Z"/><path d="M82.9,12.2h-.9v-2h-2.8c-.2-.9,2.8-4.5,3.6-4.5v3.8l.9,.5-.8,.4v1.8Zm-.9-5.5l-2.4,3h2.4v-3Z"/><path d="M152,12.2h-.9v-2h-3c.1-.4,.2-.7,.3-1,.9-1.1,1.8-2.2,2.7-3.3,.2-.2,.4-.3,.8-.5v4l.9,.5-.8,.4v1.8Zm-.9-5.5l-2.4,3h2.4v-3Z"/><path d="M114,8.6c1.2,.4,1.6,.8,1.5,1.7,0,.9-.6,1.5-1.6,1.7-.8,.2-1.5,.2-2.2-.4-.3-.2-.4-.6-.4-1,0,0,.3-.4,.4-.4,.2,0,.4,.3,.5,.4,.1,.2,0,.7,.2,.8,.4,.2,.8,.2,1.2,.2,.7-.1,1.1-.8,1-1.8,0-.7-.4-1-1.2-1-.2,0-.4-.1-.5-.2,.2,0,.4-.2,.6-.3,.8-.1,1.1-.8,.9-1.7-.1-.6-.7-.9-1.3-.7-.4,.1-.7,.3-.6,.8,0,.2-.1,.5-.3,.7,0,0-.4,0-.5,0,0-.3-.2-.6,0-.9,.5-1.2,2.6-1.3,3.4-.3,.4,.6,.3,1.5-.3,1.9-.2,.1-.4,.3-.7,.4Z"/><path d="M87,5.7c1.4,0,2.4,1,2.4,2.5,0,1.5-.9,2.5-2.4,2.5-1.5,0-2.4-.9-2.4-2.6,0-1.5,.9-2.5,2.4-2.5Zm-1.5,2.5c.1,.5,.2,1,.4,1.4,.2,.5,.6,.7,1.1,.7,.5,0,.9-.3,1.1-.7,.4-1,.5-2,0-3-.5-.9-1.6-.9-2.1,0-.2,.5-.3,1-.5,1.5Z"/><path d="M124.2,5.7c1.4,0,2.4,1,2.4,2.5,0,1.5-.9,2.5-2.4,2.5-1.5,0-2.4-.9-2.4-2.6,0-1.5,.9-2.5,2.4-2.5Zm-1.5,2.5c.1,.5,.2,1,.4,1.4,.2,.5,.6,.7,1.1,.7,.5,0,.9-.3,1.1-.7,.4-1,.5-2,0-3-.5-.9-1.6-.9-2.1,0-.2,.5-.3,1-.5,1.5Z"/><path d="M159.3,8.2c0-1.6,.9-2.5,2.3-2.5,1.5,0,2.4,1,2.4,2.6,0,1.5-.9,2.5-2.4,2.5-1.5,0-2.3-.9-2.3-2.5Zm.8,0c.1,.5,.2,1,.4,1.5,.2,.5,.6,.8,1.1,.7,.4,0,.9-.3,1-.7,.5-.9,.5-2,0-3-.5-.9-1.7-.9-2.1,0-.2,.4-.3,1-.4,1.5Z"/><path d="M183.2,8.2c0-1.6,.9-2.5,2.3-2.5,1.5,0,2.4,1,2.4,2.6,0,1.5-.9,2.5-2.4,2.5-1.5,0-2.3-.9-2.3-2.5Zm.9,0c.1,.5,.2,.9,.4,1.4,.2,.5,.6,.8,1.1,.8,.5,0,.9-.3,1.1-.7,.4-.9,.4-1.9,0-2.9-.2-.5-.6-.7-1.1-.7-.6,0-1,.3-1.1,.8-.2,.4-.2,.9-.4,1.4Z"/><path d="M188.8,8.2c0-1.6,.9-2.5,2.3-2.5,1.4,0,2.4,1,2.4,2.5,0,1.5-.9,2.6-2.4,2.6-1.5,0-2.3-.9-2.3-2.5Zm.8,0c.1,.5,.2,1,.4,1.4,.2,.5,.6,.7,1.1,.7,.5,0,.9-.2,1.1-.7,.4-1,.4-1.9,0-2.9-.2-.5-.6-.8-1.1-.7-.4,.1-.9,.4-1.1,.7-.3,.4-.3,.9-.4,1.4Z"/><path d="M46.8,8.2c0-1.5,.9-2.5,2.4-2.5,1.4,0,2.4,1,2.4,2.5,0,1.5-.9,2.5-2.4,2.5-1.5,0-2.4-.9-2.4-2.6Zm.8,0c.1,.5,.2,1,.4,1.4,.2,.5,.6,.7,1.1,.7,.5,0,.9-.3,1.1-.7,.4-1,.5-2,0-3-.5-.9-1.6-.9-2.1,0-.2,.5-.3,1-.5,1.5Z"/><path d="M7.3,5.7c1.4,0,2.4,1,2.4,2.5,0,1.5-.9,2.5-2.3,2.6-1.5,0-2.4-.9-2.4-2.5,0-1.6,.9-2.5,2.3-2.5Zm-1.5,2.5c.1,.5,.2,1,.4,1.5,.2,.5,.6,.8,1.1,.7,.4,0,.9-.4,1-.7,.5-.9,.5-2,0-3-.5-.9-1.7-.9-2.2,0-.2,.4-.3,1-.4,1.5Z"/><path d="M74.1,10.5c.2-.4,.4-.7,.6-.9,.6-.4,1.2-.7,1.8-1.1,.5-.3,.8-.8,.8-1.4,0-.9-.7-1.3-1.5-1.1-.4,.1-.6,.3-.5,.8,0,.2,0,.5-.2,.6,0,0-.4,0-.5,0-.1-.2-.3-.4-.2-.6,.1-.8,1.3-1.4,2.3-1.2,1.1,.2,1.6,.8,1.5,1.8,0,.6-.5,.9-1,1.2-.7,.3-1.4,.7-2.1,1v.2h3.3v.7h-4.3Z"/><path d="M42.5,9.8h3.2v.7h-4.3c.2-.4,.3-.7,.6-.9,.5-.4,1.1-.7,1.7-1,.6-.3,.9-.8,.9-1.5,0-.9-.7-1.4-1.6-1-.4,.2-.5,.4-.4,.8,0,.2,0,.5-.2,.6,0,0-.4,0-.5,0-.1-.2-.2-.4-.2-.6,.1-.8,1.2-1.4,2.3-1.2,1.1,.2,1.7,.8,1.6,1.7,0,.6-.5,1-1,1.2-.7,.3-1.4,.7-2.1,1v.2Z"/><path d="M213.7,8.3h-2.9c-.1,.9,.3,1.6,1,1.9,.8,.3,1.4-.3,1.9-.7-.5,1.3-2,1.6-3.1,.8-1.1-.9-1-3.2,.2-3.9,.7-.4,1.4-.4,2,0,.7,.4,.8,1.1,.7,2Zm-.8-.4c0-1-.3-1.5-.9-1.5-.7,0-1.1,.5-1.1,1.5h2.1Z"/><path d="M40.6,10.5h-3q1.1-.5,1.1-1.8c0-.6,0-1.3,0-1.9,0,0,0,0,0-.2h-1v-.2l1.9-.7c0,1,0,2,0,3.1,0,.8-.3,1.7,1,1.8Z"/><path d="M211.1,5.4c.3-.5,.6-.9,1-1.4,.1-.1,.4-.1,.7-.2,0,.2,0,.5-.1,.7-.4,.4-.9,.7-1.4,1h-.1Z"/><path d="M156.1,10.4c-.7,0-1.2-.3-1.4-.9-.2-.6,0-1.4,.4-1.8,0,0,0,0,.1,0,.5,.2,1.1,.3,1.6,.5,.5,.2,.8,.7,.6,1.1-.1,.4-.5,.7-.8,1-.1,.1-.3,0-.4,0Z" fill="transparent"/><path d="M157.2,5.8c0,.1,0,.3-.1,.5-.2,.6-.5,.7-1.1,.5-.2,0-.3-.2-.5-.2-.6-.4-.8-.9-.6-1.5,.2-.5,.8-.8,1.4-.7,.6,.1,1,.7,1,1.4Z" fill="transparent"/><path d="M181.3,8.4c0,.2,0,.3,0,.4,0,.9-.5,1.5-1.2,1.5-.6,0-1.1-.5-1.3-1.4,0-.2,0-.4,0-.5,0-.9,.2-1.3,.9-1.5,.8-.1,1.3,.3,1.5,1.2,0,.2,0,.3,0,.3Z" fill="transparent"/><path d="M117.4,8.2c0-.7,.3-1.1,1-1.2,.7-.2,1.2,0,1.5,.7,.3,.7,.3,1.4,0,2-.4,.8-1.4,.9-1.9,0-.3-.5-.3-1-.5-1.6Z" fill="transparent"/><path d="M81.9,6.7v3h-2.4l2.4-3Z" fill="transparent"/><path d="M151,6.7v3h-2.4l2.4-3Z" fill="transparent"/><path d="M85.5,8.2c.1-.5,.2-1.1,.5-1.5,.5-.9,1.6-.9,2.1,0,.5,1,.5,2,0,3-.2,.5-.6,.7-1.1,.7-.5,0-.9-.3-1.1-.7-.2-.4-.3-.9-.4-1.4Z" fill="transparent"/><path d="M122.7,8.2c.1-.5,.2-1.1,.5-1.5,.5-.9,1.6-.9,2.1,0,.5,1,.5,2,0,3-.2,.5-.6,.7-1.1,.7-.5,0-.9-.3-1.1-.7-.2-.4-.3-.9-.4-1.4Z" fill="transparent"/><path d="M160.1,8.2c.1-.5,.2-1,.4-1.5,.5-.9,1.7-.9,2.1,0,.5,1,.5,2,0,3-.2,.3-.7,.6-1,.7-.5,.1-.9-.2-1.1-.7-.2-.5-.3-1-.4-1.5Z" fill="transparent"/><path d="M184,8.2c.1-.5,.2-1,.4-1.4,.2-.5,.6-.8,1.1-.8,.5,0,.9,.3,1.1,.7,.4,.9,.4,1.9,0,2.9-.2,.5-.6,.7-1.1,.7-.6,0-1-.3-1.1-.8-.2-.4-.2-.9-.4-1.4Z" fill="transparent"/><path d="M189.7,8.2c.1-.5,.1-1,.4-1.4,.2-.3,.7-.6,1.1-.7,.5-.1,.9,.2,1.1,.7,.4,1,.4,1.9,0,2.9-.2,.5-.6,.7-1.1,.7-.5,0-.9-.3-1.1-.7-.2-.5-.3-.9-.4-1.4Z" fill="transparent"/><path d="M47.7,8.2c.1-.5,.2-1.1,.5-1.5,.5-.9,1.6-.9,2.1,0,.5,1,.5,2,0,3-.2,.5-.6,.7-1.1,.7-.5,0-.9-.3-1.1-.7-.2-.5-.3-.9-.4-1.4Z" fill="transparent"/><path d="M5.8,8.2c.1-.5,.2-1,.4-1.5,.5-.9,1.7-.9,2.2,0,.5,1,.5,2,0,3-.2,.3-.7,.6-1,.7-.5,.1-.9-.2-1.1-.7-.2-.5-.3-1-.4-1.5Z" fill="transparent"/><path d="M212.8,7.9h-2.1c0-1,.5-1.5,1.1-1.5,.6,0,.9,.5,.9,1.5Z" fill="transparent"/></g></g></svg>